<svg width="37" height="41" viewBox="0 0 37 41" fill="none" xmlns="http://www.w3.org/2000/svg">
<path d="M27.0282 30.6971C27.9076 30.6971 28.655 30.3893 29.2705 29.7738C29.8861 29.1582 30.1938 28.4108 30.1938 27.5315C30.1938 26.6522 29.8861 25.9047 29.2705 25.2892C28.655 24.6737 27.9076 24.3659 27.0282 24.3659C26.1489 24.3659 25.4015 24.6737 24.786 25.2892C24.1704 25.9047 23.8627 26.6522 23.8627 27.5315C23.8627 28.4108 24.1704 29.1582 24.786 29.7738C25.4015 30.3893 26.1489 30.6971 27.0282 30.6971ZM27.0282 37.0282C28.132 37.0282 29.1378 36.7766 30.0456 36.2732C30.9534 35.7699 31.6954 35.0962 32.2715 34.252C31.4843 33.7814 30.6511 33.423 29.7717 33.1768C28.8924 32.9306 27.9779 32.8074 27.0282 32.8074C26.0786 32.8074 25.1641 32.9306 24.2847 33.1768C23.4054 33.423 22.5722 33.7814 21.785 34.252C22.3611 35.0962 23.1031 35.7699 24.0109 36.2732C24.9187 36.7766 25.9245 37.0282 27.0282 37.0282ZM16.4763 40.1532C11.9119 38.9084 8.13292 36.2217 5.13934 32.0931C2.1454 27.9645 0.648438 23.3487 0.648438 18.2458V6.10317L16.4763 0.177734L32.3042 6.10317V18.059C31.8118 17.8589 31.2949 17.6783 30.7536 17.5172C30.2126 17.3564 29.6743 17.23 29.1386 17.1378V8.30694L16.4763 3.57862L3.81401 8.30694V18.2458C3.81401 20.1152 4.07781 21.9409 4.60541 23.7228C5.13301 25.5043 5.86021 27.1696 6.78702 28.7186C7.71348 30.2676 8.82073 31.6583 10.1088 32.8908C11.3965 34.1233 12.7939 35.1074 14.301 35.8432L14.3622 35.8227C14.6408 36.5965 15.0019 37.3379 15.4454 38.047C15.8893 38.7557 16.3938 39.3996 16.9591 39.9785C16.8701 40.0056 16.7897 40.0348 16.718 40.0661C16.6462 40.0971 16.5657 40.1261 16.4763 40.1532ZM27.0282 40.1938C24.3931 40.1938 22.1515 39.2698 20.3035 37.4218C18.4555 35.5738 17.5315 33.3322 17.5315 30.6971C17.5315 28.0619 18.4555 25.8203 20.3035 23.9723C22.1515 22.1243 24.3931 21.2003 27.0282 21.2003C29.6634 21.2003 31.905 22.1243 33.753 23.9723C35.601 25.8203 36.525 28.0619 36.525 30.6971C36.525 33.3322 35.601 35.5738 33.753 37.4218C31.905 39.2698 29.6634 40.1938 27.0282 40.1938Z" fill="url(#paint0_linear_496_7817)"/>
<defs>
<linearGradient id="paint0_linear_496_7817" x1="13.3485" y1="-5.10101" x2="61.974" y2="66.2629" gradientUnits="userSpaceOnUse">
<stop stop-color="#09DFAB"/>
<stop offset="1" stop-color="#001356"/>
</linearGradient>
</defs>
</svg>
