<svg width="41" height="42" viewBox="0 0 41 42" fill="none" xmlns="http://www.w3.org/2000/svg">
<g filter="url(#filter0_d_496_7781)">
<rect x="1.80957" y="0.459961" width="37.1921" height="37.1921" rx="4.85201" fill="white"/>
</g>
<path fill-rule="evenodd" clip-rule="evenodd" d="M24.5973 14.4492C24.8801 14.4492 25.1095 14.6785 25.1095 14.9614V16.5218C25.1095 16.8047 24.8801 17.034 24.5973 17.034H17.4155C17.1326 17.034 16.9033 16.8047 16.9033 16.5218V14.9614C16.9033 14.6785 17.1326 14.4492 17.4155 14.4492H24.5973ZM18.6572 15.1232C18.3157 15.1232 18.0388 15.4001 18.0388 15.7416C18.0388 16.0831 18.3157 16.36 18.6572 16.36C18.9988 16.36 19.2757 16.0831 19.2757 15.7416C19.2757 15.4001 18.9988 15.1232 18.6572 15.1232Z" fill="#00BF91"/>
<path fill-rule="evenodd" clip-rule="evenodd" d="M24.5973 17.7832C24.8801 17.7832 25.1095 18.0125 25.1095 18.2954V19.8557C25.1095 20.1386 24.8801 20.368 24.5973 20.368H17.4155C17.1326 20.368 16.9033 20.1386 16.9033 19.8557V18.2954C16.9033 18.0125 17.1326 17.7832 17.4155 17.7832H24.5973ZM18.6572 18.4572C18.3157 18.4572 18.0388 18.734 18.0388 19.0756C18.0388 19.4171 18.3157 19.694 18.6572 19.694C18.9988 19.694 19.2757 19.4171 19.2757 19.0756C19.2757 18.734 18.9988 18.4572 18.6572 18.4572Z" fill="#00BF91"/>
<path fill-rule="evenodd" clip-rule="evenodd" d="M24.5973 21.1167C24.8801 21.1167 25.1095 21.346 25.1095 21.6289V23.1892C25.1095 23.4721 24.8801 23.7015 24.5973 23.7015H17.4155C17.1326 23.7015 16.9033 23.4721 16.9033 23.1892V21.6289C16.9033 21.346 17.1326 21.1167 17.4155 21.1167H24.5973ZM18.6572 21.7907C18.3157 21.7907 18.0388 22.0675 18.0388 22.4091C18.0388 22.7506 18.3157 23.0275 18.6572 23.0275C18.9988 23.0275 19.2757 22.7506 19.2757 22.4091C19.2757 22.0675 18.9988 21.7907 18.6572 21.7907Z" fill="#00BF91"/>
<path d="M21.2529 7.70752C27.5206 7.70771 32.6016 12.7894 32.6016 19.0571C32.6014 25.3247 27.5205 30.4056 21.2529 30.4058C20.0141 30.4058 18.8193 30.2064 17.7012 29.8384C17.2874 29.7019 17.0623 29.2562 17.1982 28.8423C17.3346 28.4281 17.7811 28.2021 18.1953 28.3384C19.156 28.6546 20.1839 28.8266 21.2529 28.8267C26.6482 28.8265 31.0223 24.4524 31.0225 19.0571C31.0225 13.6617 26.6483 9.28778 21.2529 9.2876C15.8665 9.28766 11.4991 13.6468 11.4844 19.0298H12.6436C13.0233 19.0299 13.261 19.4411 13.0713 19.77L11.0342 23.2974C10.8441 23.6256 10.3697 23.6257 10.1797 23.2974L8.14355 19.77C7.95365 19.4411 8.19061 19.0301 8.57031 19.0298H9.9043C9.91905 12.7746 14.9943 7.70758 21.2529 7.70752Z" fill="#035C74"/>
<path d="M21.2529 7.70752L21.2529 7.49003H21.2529L21.2529 7.70752ZM32.6016 19.0571L32.819 19.0571V19.0571H32.6016ZM21.2529 30.4058L21.2529 30.6232H21.2529L21.2529 30.4058ZM17.7012 29.8384L17.633 30.0449L17.6332 30.045L17.7012 29.8384ZM17.1982 28.8423L16.9917 28.7743L16.9916 28.7744L17.1982 28.8423ZM18.1953 28.3384L18.2633 28.1318L18.2633 28.1318L18.1953 28.3384ZM21.2529 28.8267L21.2529 29.0441H21.2529L21.2529 28.8267ZM31.0225 19.0571L31.2399 19.0571V19.0571H31.0225ZM21.2529 9.2876L21.2529 9.07011H21.2529L21.2529 9.2876ZM11.4844 19.0298L11.2669 19.0292L11.2663 19.2473H11.4844V19.0298ZM12.6436 19.0298L12.6436 18.8123H12.6436V19.0298ZM13.0713 19.77L13.2596 19.8788L13.2597 19.8787L13.0713 19.77ZM11.0342 23.2974L11.2224 23.4064L11.2225 23.4061L11.0342 23.2974ZM10.1797 23.2974L9.99133 23.4061L9.99146 23.4063L10.1797 23.2974ZM8.14355 19.77L8.33191 19.6613L8.3319 19.6613L8.14355 19.77ZM8.57031 19.0298V18.8123L8.57015 18.8123L8.57031 19.0298ZM9.9043 19.0298V19.2473H10.1213L10.1218 19.0303L9.9043 19.0298ZM21.2529 7.70752L21.2529 7.92501C27.4005 7.92519 32.3841 12.9095 32.3841 19.0571H32.6016H32.819C32.819 12.6693 27.6407 7.49022 21.2529 7.49003L21.2529 7.70752ZM32.6016 19.0571L32.3841 19.0571C32.3839 25.2046 27.4004 30.1881 21.2529 30.1883L21.2529 30.4058L21.2529 30.6232C27.6406 30.6231 32.8189 25.4448 32.819 19.0571L32.6016 19.0571ZM21.2529 30.4058L21.2529 30.1883C20.0375 30.1883 18.8656 29.9927 17.7692 29.6318L17.7012 29.8384L17.6332 30.045C18.7729 30.4201 19.9906 30.6232 21.2529 30.6232L21.2529 30.4058ZM17.7012 29.8384L17.7693 29.6318C17.4694 29.5329 17.3064 29.21 17.4049 28.9102L17.1982 28.8423L16.9916 28.7744C16.8181 29.3025 17.1054 29.8708 17.633 30.0449L17.7012 29.8384ZM17.1982 28.8423L17.4048 28.9103C17.5037 28.6099 17.8275 28.4463 18.1274 28.545L18.1953 28.3384L18.2633 28.1318C17.7347 27.9579 17.1655 28.2462 16.9917 28.7743L17.1982 28.8423ZM18.1953 28.3384L18.1273 28.545C19.1096 28.8683 20.1604 29.0441 21.2529 29.0441L21.2529 28.8267L21.2529 28.6092C20.2074 28.6092 19.2024 28.4409 18.2633 28.1318L18.1953 28.3384ZM21.2529 28.8267L21.2529 29.0441C26.7683 29.044 31.2398 24.5725 31.2399 19.0571L31.0225 19.0571L30.805 19.0571C30.8048 24.3323 26.5281 28.609 21.2529 28.6092L21.2529 28.8267ZM31.0225 19.0571H31.2399C31.2399 13.5415 26.7685 9.0703 21.2529 9.07011L21.2529 9.2876L21.2529 9.50509C26.5282 9.50527 30.805 13.7818 30.805 19.0571H31.0225ZM21.2529 9.2876L21.2529 9.07011C15.7466 9.07017 11.282 13.5264 11.2669 19.0292L11.4844 19.0298L11.7019 19.0304C11.7163 13.7672 15.9865 9.50514 21.2529 9.50509L21.2529 9.2876ZM11.4844 19.0298V19.2473H12.6436V19.0298V18.8123H11.4844V19.0298ZM12.6436 19.0298L12.6435 19.2473C12.8561 19.2473 12.9889 19.4775 12.8829 19.6614L13.0713 19.77L13.2597 19.8787C13.5331 19.4046 13.1905 18.8124 12.6436 18.8123L12.6436 19.0298ZM13.0713 19.77L12.883 19.6613L10.8458 23.1886L11.0342 23.2974L11.2225 23.4061L13.2596 19.8788L13.0713 19.77ZM11.0342 23.2974L10.846 23.1884C10.7396 23.372 10.4741 23.3719 10.3679 23.1884L10.1797 23.2974L9.99146 23.4063C10.2653 23.8794 10.9485 23.8791 11.2224 23.4064L11.0342 23.2974ZM10.1797 23.2974L10.368 23.1886L8.33191 19.6613L8.14355 19.77L7.9552 19.8787L9.99133 23.4061L10.1797 23.2974ZM8.14355 19.77L8.3319 19.6613C8.2256 19.4772 8.35827 19.2474 8.57047 19.2473L8.57031 19.0298L8.57015 18.8123C8.02295 18.8127 7.6817 19.405 7.9552 19.8788L8.14355 19.77ZM8.57031 19.0298V19.2473H9.9043V19.0298V18.8123H8.57031V19.0298ZM9.9043 19.0298L10.1218 19.0303C10.1363 12.8949 15.1142 7.92506 21.2529 7.92501L21.2529 7.70752L21.2529 7.49003C14.8743 7.49009 9.70185 12.6542 9.68681 19.0293L9.9043 19.0298Z" fill="white"/>
<defs>
<filter id="filter0_d_496_7781" x="0.0452045" y="0.459961" width="40.7211" height="40.7209" filterUnits="userSpaceOnUse" color-interpolation-filters="sRGB">
<feFlood flood-opacity="0" result="BackgroundImageFix"/>
<feColorMatrix in="SourceAlpha" type="matrix" values="0 0 0 0 0 0 0 0 0 0 0 0 0 0 0 0 0 0 127 0" result="hardAlpha"/>
<feOffset dy="1.76437"/>
<feGaussianBlur stdDeviation="0.882183"/>
<feComposite in2="hardAlpha" operator="out"/>
<feColorMatrix type="matrix" values="0 0 0 0 0 0 0 0 0 0 0 0 0 0 0 0 0 0 0.25 0"/>
<feBlend mode="normal" in2="BackgroundImageFix" result="effect1_dropShadow_496_7781"/>
<feBlend mode="normal" in="SourceGraphic" in2="effect1_dropShadow_496_7781" result="shape"/>
</filter>
</defs>
</svg>
