<svg width="42" height="42" viewBox="0 0 42 42" fill="none" xmlns="http://www.w3.org/2000/svg">
<path d="M21.1402 41.9204C17.3178 41.9204 13.849 40.9741 10.7339 39.0815C7.61915 37.1893 5.1759 34.6536 3.40419 31.4744V37.3212H0.463867V26.5401H11.2451V29.4804H5.67706C7.0943 32.3354 9.18895 34.6325 11.961 36.3715C14.7331 38.1106 17.7928 38.9801 21.1402 38.9801C23.5402 38.9801 25.7913 38.5366 27.8937 37.6496C29.9957 36.7623 31.8358 35.5515 33.4141 34.0173C34.9924 32.4831 36.2597 30.6712 37.216 28.5816C38.1722 26.492 38.6881 24.2409 38.7636 21.8282H41.7034C41.6407 24.6127 41.0583 27.2238 39.9563 29.6617C38.8544 32.0992 37.3767 34.229 35.5233 36.051C33.6699 37.873 31.5086 39.3068 29.0394 40.3522C26.5702 41.3977 23.9371 41.9204 21.1402 41.9204ZM19.7529 34.6828V32.21C18.318 31.8754 17.1249 31.2797 16.1735 30.4228C15.2225 29.5658 14.4931 28.4099 13.9854 26.9551L16.4656 25.9446C16.9331 27.2214 17.6024 28.1915 18.4734 28.8551C19.344 29.5183 20.331 29.8499 21.4343 29.8499C22.55 29.8499 23.5515 29.5715 24.4388 29.0148C25.3258 28.4585 25.7693 27.5657 25.7693 26.3367C25.7693 25.3138 25.388 24.499 24.6255 23.8923C23.8626 23.2853 22.4395 22.5997 20.3561 21.8355C18.3407 21.1119 16.8869 20.3015 15.9947 19.4044C15.1024 18.5072 14.6563 17.3223 14.6563 15.8495C14.6563 14.5855 15.1126 13.4282 16.025 12.3775C16.9372 11.3271 18.2125 10.6574 19.8509 10.3683V7.99347H22.5276V10.3683C23.6282 10.4539 24.6417 10.868 25.5679 11.6106C26.4937 12.3532 27.1615 13.2459 27.5712 14.2887L25.1513 15.2615C24.8145 14.5352 24.3331 13.9315 23.7071 13.4502C23.0815 12.969 22.2585 12.7284 21.2382 12.7284C20.0193 12.7284 19.0637 13.0173 18.3714 13.5953C17.6791 14.1732 17.333 14.9246 17.333 15.8495C17.333 16.7744 17.671 17.4945 18.3469 18.0097C19.0229 18.5249 20.3913 19.1344 22.4521 19.8381C24.8044 20.6875 26.3851 21.6398 27.1944 22.6951C28.0036 23.7507 28.4082 24.9645 28.4082 26.3367C28.4082 27.2717 28.2354 28.0922 27.8897 28.7982C27.5441 29.5046 27.0924 30.0983 26.5347 30.5796C25.9767 31.0608 25.3415 31.4409 24.6289 31.7199C23.9164 31.9986 23.1833 32.1946 22.4296 32.308V34.6828H19.7529ZM0.57707 20.8481C0.664953 18.0009 1.26609 15.3552 2.38047 12.9112C3.49518 10.4671 4.98543 8.34043 6.85123 6.53115C8.71736 4.72154 10.8756 3.30659 13.3258 2.2863C15.7761 1.266 18.3809 0.755859 21.1402 0.755859C24.9251 0.755859 28.3938 1.70526 31.5465 3.60405C34.6992 5.50252 37.1425 8.06028 38.8763 11.2773V5.35502H41.8166V16.1362H31.0354V13.1959H36.6034C35.2237 10.3911 33.1448 8.10667 30.3665 6.34248C27.5882 4.57828 24.5128 3.69618 21.1402 3.69618C18.7906 3.69618 16.5677 4.13348 14.4716 5.00806C12.3758 5.88264 10.5325 7.08066 8.9418 8.60212C7.35109 10.1239 6.06813 11.9296 5.09292 14.0192C4.11771 16.1088 3.59237 18.3851 3.5169 20.8481H0.57707Z" fill="url(#paint0_linear_496_7805)"/>
<defs>
<linearGradient id="paint0_linear_496_7805" x1="15.1025" y1="-4.67439" x2="62.824" y2="73.801" gradientUnits="userSpaceOnUse">
<stop stop-color="#09DFAB"/>
<stop offset="1" stop-color="#001356"/>
</linearGradient>
</defs>
</svg>
