<svg width="181" height="60" viewBox="0 0 181 60" fill="none" xmlns="http://www.w3.org/2000/svg">
<path d="M19.361 10.0916C21.591 10.0916 23.449 10.5414 24.935 11.441C26.461 12.3406 27.517 13.5532 28.103 15.0787L28.925 10.5023H40.425L34.675 43.0651C34.127 46.1551 33.051 48.9323 31.448 51.3965C29.844 53.8998 27.673 55.8946 24.935 57.381C22.197 58.8673 18.931 59.6105 15.137 59.6105C10.326 59.6105 6.59 58.5153 3.931 56.3249C1.31 54.1736 0 51.2205 0 47.4655L0.0579987 46.292H11.382C11.46 47.3481 11.91 48.1695 12.731 48.7562C13.592 49.343 14.746 49.6363 16.193 49.6363C20.105 49.6363 22.432 47.4459 23.175 43.0651L23.938 38.8407C22.803 40.3662 21.317 41.5787 19.479 42.4784C17.679 43.378 15.665 43.8278 13.436 43.8278C9.993 43.8278 7.216 42.6935 5.104 40.4249C3.031 38.1171 1.995 34.9879 1.995 31.0374C1.995 29.7466 2.112 28.3776 2.347 26.9304C2.972 23.5274 4.126 20.5547 5.808 18.0122C7.49 15.4698 9.505 13.5141 11.851 12.1451C14.237 10.7761 16.741 10.0916 19.361 10.0916ZM26.05 26.9304C26.167 26.3436 26.226 25.796 26.226 25.2875C26.226 23.6447 25.757 22.3735 24.818 21.4739C23.918 20.5742 22.745 20.1244 21.298 20.1244C19.576 20.1244 18.031 20.7307 16.662 21.9433C15.293 23.1167 14.433 24.7791 14.081 26.9304C13.964 27.5171 13.905 28.0842 13.905 28.6318C13.905 30.2746 14.355 31.5459 15.254 32.4455C16.193 33.3451 17.386 33.7949 18.833 33.7949C20.554 33.7949 22.099 33.1887 23.468 31.9761C24.837 30.7636 25.698 29.0816 26.05 26.9304ZM57.48 0L49.794 43.4171H38.235L45.921 0H57.48ZM68.664 43.8278C65.808 43.8278 63.266 43.2607 61.036 42.1263C58.846 40.992 57.144 39.3883 55.932 37.3153C54.719 35.2422 54.113 32.8171 54.113 30.04C54.113 26.285 54.993 22.882 56.753 19.8311C58.552 16.7801 61.017 14.3942 64.146 12.6731C67.275 10.9521 70.776 10.0916 74.648 10.0916C77.503 10.0916 80.026 10.6587 82.217 11.793C84.446 12.9274 86.167 14.5506 87.38 16.6628C88.631 18.7359 89.257 21.161 89.257 23.9381C89.257 27.7322 88.358 31.1547 86.558 34.2056C84.759 37.2175 82.295 39.5839 79.166 41.3049C76.037 42.9869 72.536 43.8278 68.664 43.8278ZM70.424 33.9123C71.793 33.9123 73.005 33.482 74.061 32.6215C75.157 31.761 75.978 30.6462 76.526 29.2772C77.112 27.9082 77.406 26.5001 77.406 25.0529C77.406 23.41 76.975 22.1584 76.115 21.2979C75.293 20.4373 74.218 20.0071 72.888 20.0071C71.48 20.0071 70.248 20.4373 69.192 21.2979C68.175 22.1584 67.373 23.2731 66.786 24.6422C66.238 26.0112 65.965 27.4388 65.965 28.9252C65.965 30.568 66.375 31.8197 67.197 32.6802C68.018 33.5016 69.094 33.9123 70.424 33.9123ZM104.262 15.0787C105.396 13.5532 106.863 12.3406 108.663 11.441C110.501 10.5414 112.535 10.0916 114.764 10.0916C118.206 10.0916 120.964 11.2259 123.037 13.4945C125.149 15.7632 126.205 18.8728 126.205 22.8233C126.205 24.075 126.088 25.444 125.853 26.9304C125.228 30.3333 124.074 33.3256 122.392 35.9071C120.71 38.4496 118.676 40.4053 116.29 41.7743C113.943 43.1433 111.459 43.8278 108.839 43.8278C106.57 43.8278 104.692 43.3976 103.206 42.537C101.759 41.6374 100.722 40.4053 100.096 38.8407L99.275 43.4171H87.717L95.403 0H106.961L104.262 15.0787ZM114.119 26.9304C114.236 26.3436 114.295 25.7765 114.295 25.2289C114.295 23.6252 113.826 22.3735 112.887 21.4739C111.987 20.5742 110.814 20.1244 109.367 20.1244C107.685 20.1244 106.14 20.7307 104.732 21.9433C103.363 23.1558 102.502 24.8182 102.15 26.9304C102.033 27.5171 101.974 28.0647 101.974 28.5732C101.974 30.216 102.424 31.5067 103.323 32.4455C104.262 33.3451 105.455 33.7949 106.902 33.7949C108.623 33.7949 110.168 33.1887 111.537 31.9761C112.906 30.7245 113.767 29.0425 114.119 26.9304ZM125.718 26.9304C126.344 23.5274 127.497 20.5547 129.179 18.0122C130.861 15.4698 132.876 13.5141 135.223 12.1451C137.608 10.7761 140.112 10.0916 142.732 10.0916C145.001 10.0916 146.879 10.5414 148.365 11.441C149.851 12.3406 150.888 13.5532 151.475 15.0787L152.296 10.5023H163.796L157.987 43.4171H146.487L147.309 38.8407C146.175 40.3662 144.688 41.5787 142.85 42.4784C141.011 43.378 138.977 43.8278 136.748 43.8278C133.306 43.8278 130.548 42.6935 128.475 40.4249C126.402 38.1171 125.366 34.9879 125.366 31.0374C125.366 29.7466 125.483 28.3776 125.718 26.9304ZM149.421 26.9304C149.538 26.3436 149.597 25.796 149.597 25.2875C149.597 23.6447 149.128 22.3735 148.189 21.4739C147.289 20.5742 146.116 20.1244 144.669 20.1244C142.948 20.1244 141.403 20.7307 140.034 21.9433C138.665 23.1167 137.804 24.7791 137.452 26.9304C137.335 27.5171 137.276 28.0842 137.276 28.6318C137.276 30.2746 137.726 31.5459 138.625 32.4455C139.564 33.3451 140.757 33.7949 142.204 33.7949C143.925 33.7949 145.471 33.1887 146.84 31.9761C148.209 30.7636 149.069 29.0816 149.421 26.9304ZM180.851 0L173.165 43.4171H161.606L169.292 0H180.851Z" fill="url(#paint0_linear_4099_5)"/>
<defs>
<linearGradient id="paint0_linear_4099_5" x1="-103.005" y1="-9.58679" x2="91.089" y2="477.232" gradientUnits="userSpaceOnUse">
<stop stop-color="#09DFAB"/>
<stop offset="0.191327" stop-color="#07AB95"/>
<stop offset="0.430537" stop-color="#04767F"/>
<stop offset="0.64396" stop-color="#023F68"/>
<stop offset="1" stop-color="#001356"/>
</linearGradient>
</defs>
</svg>
