<svg width="46" height="41" viewBox="0 0 46 41" fill="none" xmlns="http://www.w3.org/2000/svg">
<path d="M22.6885 37.0404C22.8966 37.0404 23.1083 36.9917 23.3235 36.8943C23.5383 36.7969 23.7079 36.686 23.8324 36.5615L40.7045 19.6894C41.1805 19.2134 41.539 18.7048 41.7798 18.1637C42.0203 17.623 42.1405 17.0551 42.1405 16.4603C42.1405 15.8436 42.0203 15.2499 41.7798 14.6793C41.539 14.1083 41.1805 13.5957 40.7045 13.1414L32.2663 4.70327C31.8121 4.22721 31.3198 3.87896 30.7896 3.65852C30.2598 3.43842 29.6865 3.32837 29.0698 3.32837C28.4749 3.32837 27.9036 3.43842 27.3558 3.65852C26.8081 3.87896 26.303 4.22721 25.8407 4.70327L24.6314 5.91256L28.534 9.84738C29.0073 10.2992 29.3569 10.8144 29.583 11.3931C29.8087 11.9719 29.9216 12.5722 29.9216 13.1942C29.9216 14.4817 29.4916 15.5554 28.6316 16.4154C27.7716 17.2754 26.6978 17.7054 25.4103 17.7054C24.7884 17.7054 24.1859 17.6026 23.603 17.3969C23.0204 17.1916 22.5032 16.863 22.0514 16.4112L18.0554 12.4479L8.88735 21.616C8.72773 21.7756 8.60801 21.9542 8.5282 22.1518C8.44839 22.349 8.40848 22.5519 8.40848 22.7604C8.40848 23.1496 8.54103 23.4822 8.80613 23.7582C9.07123 24.0342 9.39838 24.1722 9.78759 24.1722C9.99609 24.1722 10.2077 24.1235 10.4226 24.0261C10.6377 23.9287 10.8076 23.8178 10.932 23.6933L17.8608 16.7646L20.0837 18.9875L13.1871 25.9163C13.0278 26.0759 12.9083 26.2545 12.8285 26.4521C12.7487 26.6493 12.7088 26.8522 12.7088 27.0607C12.7088 27.4365 12.8447 27.7604 13.1164 28.0321C13.3882 28.3039 13.712 28.4398 14.0879 28.4398C14.2964 28.4398 14.508 28.3911 14.7229 28.2937C14.938 28.1963 15.1077 28.0854 15.2318 27.9609L22.4042 20.8212L24.6277 23.0441L17.4874 30.2166C17.3415 30.341 17.2253 30.5107 17.1388 30.7255C17.0523 30.9407 17.0091 31.1523 17.0091 31.3605C17.0091 31.7367 17.145 32.0607 17.4167 32.3324C17.6885 32.6042 18.0123 32.7401 18.3882 32.7401C18.5963 32.7401 18.7992 32.7002 18.9968 32.6204C19.194 32.5406 19.3725 32.4209 19.5321 32.2612L26.7045 25.1215L28.928 27.3444L21.7555 34.5169C21.5959 34.6765 21.4762 34.8618 21.3964 35.0727C21.3166 35.2837 21.2767 35.4865 21.2767 35.6813C21.2767 36.0705 21.4214 36.3944 21.7107 36.6528C22.0001 36.9112 22.326 37.0404 22.6885 37.0404ZM22.6558 40.2042C21.4632 40.2042 20.4234 39.7905 19.5363 38.9632C18.6492 38.1356 18.1855 37.1051 18.1451 35.8717C16.9497 35.7905 15.951 35.366 15.149 34.5981C14.347 33.8299 13.9123 32.821 13.8448 31.5714C12.5952 31.4906 11.5851 31.0539 10.8144 30.2614C10.0434 29.4689 9.63078 28.4722 9.57664 27.2711C8.32181 27.1903 7.28603 26.7353 6.46929 25.9062C5.65254 25.0772 5.24417 24.0286 5.24417 22.7604C5.24417 22.1384 5.36248 21.5291 5.5991 20.9325C5.83572 20.3362 6.17993 19.8123 6.63172 19.3609L18.0554 7.96936L24.2342 14.1477C24.3584 14.2936 24.5211 14.41 24.7226 14.4968C24.9244 14.5833 25.1429 14.6265 25.3781 14.6265C25.7621 14.6265 26.0933 14.4994 26.3717 14.2452C26.6505 13.991 26.79 13.6583 26.79 13.2469C26.79 13.0117 26.7467 12.7934 26.6602 12.5919C26.5734 12.3904 26.457 12.2275 26.3111 12.103L18.9114 4.70327C18.4571 4.22721 17.9615 3.87896 17.4247 3.65852C16.8878 3.43842 16.311 3.32837 15.6943 3.32837C15.0994 3.32837 14.5349 3.43842 14.0009 3.65852C13.4665 3.87896 12.9614 4.22721 12.4857 4.70327L5.55638 11.6647C5.17245 12.0487 4.85813 12.5024 4.61342 13.0259C4.36871 13.5491 4.22474 14.0826 4.18149 14.6265C4.13789 15.0755 4.15811 15.5198 4.24214 15.9592C4.32582 16.3987 4.47313 16.8118 4.68409 17.1986L2.35568 19.527C1.87963 18.84 1.52136 18.0705 1.28087 17.2186C1.04004 16.3667 0.941239 15.5027 0.984484 14.6265C1.02773 13.6554 1.24677 12.7176 1.64161 11.8129C2.03644 10.9083 2.58949 10.1003 3.30076 9.38908L10.2095 2.48034C10.9995 1.71211 11.859 1.1341 12.7879 0.746294C13.7168 0.358139 14.6924 0.164062 15.7149 0.164062C16.7369 0.164062 17.7091 0.358139 18.6313 0.746294C19.5539 1.1341 20.3991 1.71211 21.167 2.48034L22.3763 3.6891L23.585 2.48034C24.3747 1.71211 25.2307 1.1341 26.1529 0.746294C27.0751 0.358139 28.0474 0.164062 29.0698 0.164062C30.0923 0.164062 31.0679 0.358139 31.9968 0.746294C32.9257 1.1341 33.7743 1.71211 34.5425 2.48034L42.9279 10.8658C43.6958 11.634 44.284 12.5082 44.6926 13.4884C45.1008 14.4687 45.3049 15.47 45.3049 16.4924C45.3049 17.5148 45.1008 18.4872 44.6926 19.4094C44.284 20.3316 43.6958 21.1767 42.9279 21.9445L26.0553 38.7845C25.5902 39.2496 25.0663 39.6026 24.4837 39.8434C23.9008 40.0839 23.2915 40.2042 22.6558 40.2042Z" fill="url(#paint0_linear_496_7814)"/>
<defs>
<linearGradient id="paint0_linear_496_7814" x1="16.6673" y1="-5.11786" x2="60.8946" y2="75.0378" gradientUnits="userSpaceOnUse">
<stop stop-color="#09DFAB"/>
<stop offset="1" stop-color="#001356"/>
</linearGradient>
</defs>
</svg>
