<svg width="114" height="25" viewBox="0 0 114 25" fill="none" xmlns="http://www.w3.org/2000/svg">
<path fill-rule="evenodd" clip-rule="evenodd" d="M36.0571 11.0924L37.2434 8.00451C37.3672 7.68339 37.4098 7.33751 37.3676 6.9966C37.3255 6.6557 37.1998 6.32996 37.0015 6.0474C36.8031 5.76484 36.538 5.53391 36.2288 5.37446C35.9197 5.21501 35.5759 5.13182 35.2268 5.13204H28.6887C27.9878 5.13215 27.3035 5.34223 26.7269 5.73433C26.1502 6.12643 25.7086 6.68198 25.4607 7.32708L21.0494 18.9534C21.0083 19.057 20.9936 19.169 21.0065 19.2795C21.0195 19.39 21.0597 19.4958 21.1237 19.5875C21.1877 19.6792 21.2736 19.7541 21.3737 19.8057C21.4739 19.8573 21.5854 19.884 21.6985 19.8835H23.9876C24.1974 19.8835 24.4022 19.8206 24.5748 19.7032C24.7473 19.5857 24.8794 19.4194 24.9534 19.2262L28.7644 9.19039H32.7849L32.1547 10.8258C32.1136 10.9295 32.0989 11.0414 32.1118 11.152C32.1248 11.2625 32.165 11.3682 32.229 11.4599C32.293 11.5517 32.3789 11.6266 32.4791 11.6782C32.5792 11.7298 32.6907 11.7565 32.8038 11.7559H35.0945C35.3045 11.7546 35.509 11.6904 35.681 11.5719C35.8529 11.4534 35.9841 11.2862 36.0571 11.0924Z" fill="white"/>
<path fill-rule="evenodd" clip-rule="evenodd" d="M53.5638 5.13049H42.293C41.5921 5.1306 40.9078 5.34068 40.3312 5.73278C39.7546 6.12488 39.3129 6.68043 39.065 7.32553L35.3942 16.9955C35.2708 17.3167 35.2285 17.6627 35.2709 18.0035C35.3132 18.3444 35.4391 18.6701 35.6376 18.9526C35.836 19.2351 36.1012 19.4659 36.4103 19.6254C36.7195 19.7848 37.0633 19.8681 37.4123 19.868H48.6831C49.384 19.8679 50.0683 19.6578 50.6449 19.2657C51.2216 18.8736 51.6632 18.318 51.9111 17.6729L55.5804 8.00451C55.7044 7.68331 55.7473 7.33726 55.7053 6.99614C55.6633 6.65502 55.5377 6.32905 55.3393 6.04629C55.1409 5.76352 54.8756 5.53243 54.5663 5.3729C54.2571 5.21337 53.913 5.13018 53.5638 5.13049ZM48.6122 15.8267H39.8511L42.3608 9.17643H51.1218L48.6122 15.8267Z" fill="white"/>
<path fill-rule="evenodd" clip-rule="evenodd" d="M75.9524 0.0986328H73.6586C73.4488 0.0986058 73.244 0.161498 73.0714 0.278927C72.8989 0.396356 72.7668 0.562741 72.6928 0.755905L71.0134 5.13049H60.5383C59.8373 5.1306 59.153 5.34068 58.5764 5.73278C57.9998 6.12488 57.5581 6.68043 57.3102 7.32553L53.641 16.9955C53.5172 17.3166 53.4746 17.6625 53.5167 18.0034C53.5589 18.3443 53.6845 18.67 53.8829 18.9526C54.0813 19.2352 54.3464 19.4661 54.6555 19.6255C54.9647 19.785 55.3085 19.8682 55.6575 19.868H60.5509H63.6545C63.8643 19.868 64.0691 19.8051 64.2416 19.6877C64.4142 19.5702 64.5463 19.4039 64.6202 19.2107L65.5655 16.7444C65.6066 16.6407 65.6214 16.5288 65.6084 16.4182C65.5955 16.3077 65.5552 16.202 65.4912 16.1102C65.4272 16.0185 65.3414 15.9436 65.2412 15.892C65.141 15.8404 65.0295 15.8137 64.9164 15.8143H58.0979L60.6076 9.16403H69.4584L65.7514 18.9301C65.7103 19.0338 65.6956 19.1457 65.7085 19.2563C65.7215 19.3668 65.7617 19.4725 65.8257 19.5642C65.8897 19.656 65.9756 19.7309 66.0757 19.7825C66.1759 19.8341 66.2874 19.8608 66.4005 19.8602H68.6912C68.8987 19.8593 69.1011 19.797 69.2722 19.6815C69.4433 19.5659 69.5752 19.4024 69.6506 19.2122L76.5984 1.02874C76.6394 0.925335 76.6541 0.813646 76.6413 0.703362C76.6285 0.593079 76.5886 0.487534 76.5249 0.395888C76.4613 0.304242 76.3759 0.229264 76.2761 0.177463C76.1763 0.125662 76.0652 0.0986021 75.9524 0.0986328Z" fill="white"/>
<path fill-rule="evenodd" clip-rule="evenodd" d="M111.294 5.13049H97.43C96.7291 5.1306 96.0448 5.34068 95.4682 5.73278C94.8915 6.12488 94.4499 6.68043 94.2019 7.32553L89.7828 18.9518C89.7417 19.0555 89.727 19.1674 89.7399 19.278C89.7529 19.3885 89.7931 19.4942 89.8571 19.5859C89.9211 19.6777 90.007 19.7526 90.1071 19.8042C90.2073 19.8558 90.3188 19.8825 90.4319 19.8819H92.7226C92.9323 19.8815 93.1369 19.8184 93.3094 19.7011C93.4818 19.5837 93.614 19.4176 93.6883 19.2246L97.5041 9.17644H101.159L97.4095 19.0526C97.3692 19.1564 97.3551 19.2683 97.3684 19.3786C97.3818 19.489 97.4222 19.5945 97.4863 19.686C97.5503 19.7775 97.636 19.8524 97.736 19.9041C97.836 19.9557 97.9473 19.9827 98.0602 19.9827H100.349C100.56 19.9827 100.766 19.9192 100.938 19.8009C101.111 19.6826 101.243 19.515 101.317 19.3208L105.169 9.17644H108.854L105.147 18.9425C105.105 19.0462 105.091 19.1581 105.104 19.2687C105.117 19.3792 105.157 19.4849 105.221 19.5766C105.285 19.6684 105.371 19.7433 105.471 19.7949C105.571 19.8465 105.683 19.8732 105.796 19.8726H108.091C108.301 19.8722 108.505 19.8091 108.678 19.6918C108.85 19.5744 108.982 19.4083 109.057 19.2153L113.311 8.00606C113.435 7.68478 113.478 7.33856 113.436 6.99723C113.394 6.6559 113.269 6.3297 113.07 6.04673C112.872 5.76376 112.607 5.5325 112.297 5.37288C111.988 5.21327 111.643 5.13008 111.294 5.13049Z" fill="white"/>
<path fill-rule="evenodd" clip-rule="evenodd" d="M90.3707 5.13049H81.4883C80.7874 5.1306 80.1031 5.34068 79.5265 5.73278C78.9498 6.12488 78.5082 6.68043 78.2602 7.32553L77.9184 8.25564C77.8772 8.35928 77.8625 8.47125 77.8755 8.58178C77.8884 8.69231 77.9286 8.79805 77.9927 8.88977C78.0567 8.98149 78.1425 9.05641 78.2427 9.108C78.3429 9.15959 78.4544 9.18627 78.5674 9.18574H87.9256L85.4159 15.836H76.5934L77.066 14.5369H84.091C84.3006 14.5371 84.5052 14.4744 84.6778 14.3573C84.8503 14.2401 84.9825 14.0741 85.0567 13.8812L86.0886 11.125C86.1291 11.022 86.1436 10.9108 86.1309 10.801C86.1182 10.6913 86.0786 10.5862 86.0156 10.4947C85.9525 10.4033 85.8679 10.3283 85.769 10.276C85.67 10.2238 85.5597 10.196 85.4474 10.1949H77.0818C76.347 10.2536 75.6447 10.5185 75.0583 10.9581C74.4719 11.3978 74.0259 11.9937 73.7734 12.6752L72.6595 15.6205L72.1318 16.9955C72.0087 17.3168 71.9667 17.6626 72.0093 18.0033C72.0518 18.344 72.1777 18.6695 72.3761 18.9519C72.5745 19.2343 72.8395 19.4651 73.1484 19.6247C73.4574 19.7842 73.801 19.8677 74.1499 19.868H79.7333H87.3112C87.4787 19.868 87.6422 19.8179 87.7801 19.7243C87.918 19.6307 88.0237 19.4981 88.0831 19.344L92.3888 8.00451C92.5125 7.68318 92.5551 7.3371 92.5129 6.99601C92.4706 6.65492 92.3449 6.32902 92.1464 6.04632C91.9478 5.76362 91.6825 5.53258 91.3732 5.37306C91.0639 5.21353 90.7199 5.13029 90.3707 5.13049Z" fill="white"/>
<path fill-rule="evenodd" clip-rule="evenodd" d="M21.6232 5.13049H10.2658C9.56488 5.1306 8.88059 5.34068 8.30395 5.73278C7.72732 6.12488 7.28566 6.68043 7.03773 7.32553L0.687107 23.9713C0.645987 24.0749 0.63126 24.1869 0.644209 24.2974C0.657158 24.4079 0.697391 24.5137 0.7614 24.6054C0.825408 24.6971 0.911249 24.772 1.01144 24.8236C1.11162 24.8752 1.22312 24.9019 1.33619 24.9014H3.62531C3.83527 24.9013 4.04024 24.8384 4.21301 24.721C4.38577 24.6036 4.51818 24.4373 4.59264 24.2441L10.3336 9.17644H19.1828L17.2261 14.3385L16.6747 15.8267H9.53638C9.32659 15.8266 9.12177 15.8895 8.94923 16.007C8.77669 16.1244 8.64462 16.2908 8.57063 16.4839L7.62537 18.9487C7.58465 19.0524 7.57022 19.1642 7.58334 19.2746C7.59646 19.385 7.63673 19.4906 7.70067 19.5822C7.7646 19.6738 7.85027 19.7487 7.95025 19.8004C8.05023 19.8521 8.16151 19.879 8.27445 19.8788H16.6889H16.7425C17.4434 19.8787 18.1277 19.6686 18.7043 19.2765C19.281 18.8844 19.7226 18.3289 19.9706 17.6838L20.4322 16.4839L23.6476 8.00451C23.7716 7.68269 23.8141 7.33605 23.7715 6.99447C23.729 6.65288 23.6026 6.32661 23.4034 6.04376C23.2042 5.76092 22.938 5.52999 22.6279 5.37089C22.3177 5.21179 21.9729 5.12928 21.6232 5.13049Z" fill="white"/>
</svg>
