<svg width="42" height="42" viewBox="0 0 42 42" fill="none" xmlns="http://www.w3.org/2000/svg">
<g filter="url(#filter0_d_496_7665)">
<rect x="2.63086" y="0.470215" width="37.1922" height="37.1922" rx="6.97782" fill="white"/>
<path fill-rule="evenodd" clip-rule="evenodd" d="M21.227 26.319C26.3763 26.319 30.5507 22.0083 30.5507 19.0672C30.5507 16.1261 26.3763 11.8154 21.227 11.8154C16.0777 11.8154 11.9033 16.1291 11.9033 19.0672C11.9033 22.0053 16.0777 26.319 21.227 26.319Z" stroke="#035C74" stroke-width="1.32328" stroke-linecap="round" stroke-linejoin="round"/>
<path d="M21.227 22.1751C22.9435 22.1751 24.3349 20.7836 24.3349 19.0672C24.3349 17.3508 22.9435 15.9593 21.227 15.9593C19.5106 15.9593 18.1191 17.3508 18.1191 19.0672C18.1191 20.7836 19.5106 22.1751 21.227 22.1751Z" stroke="#035C74" stroke-width="1.32328" stroke-linecap="round" stroke-linejoin="round"/>
<path d="M21.227 22.1749C22.9435 22.1749 24.3349 20.7834 24.3349 19.067C24.3349 17.3506 22.9435 15.9591 21.227 15.9591C19.5106 15.9591 18.1191 17.3506 18.1191 19.067C18.1191 20.7834 19.5106 22.1749 21.227 22.1749Z" stroke="#00BF91" stroke-width="1.32328" stroke-linecap="round" stroke-linejoin="round"/>
</g>
<defs>
<filter id="filter0_d_496_7665" x="0.866489" y="0.470215" width="40.7211" height="40.7209" filterUnits="userSpaceOnUse" color-interpolation-filters="sRGB">
<feFlood flood-opacity="0" result="BackgroundImageFix"/>
<feColorMatrix in="SourceAlpha" type="matrix" values="0 0 0 0 0 0 0 0 0 0 0 0 0 0 0 0 0 0 127 0" result="hardAlpha"/>
<feOffset dy="1.76437"/>
<feGaussianBlur stdDeviation="0.882185"/>
<feComposite in2="hardAlpha" operator="out"/>
<feColorMatrix type="matrix" values="0 0 0 0 0 0 0 0 0 0 0 0 0 0 0 0 0 0 0.25 0"/>
<feBlend mode="normal" in2="BackgroundImageFix" result="effect1_dropShadow_496_7665"/>
<feBlend mode="normal" in="SourceGraphic" in2="effect1_dropShadow_496_7665" result="shape"/>
</filter>
</defs>
</svg>
