<svg width="42" height="42" viewBox="0 0 42 42" fill="none" xmlns="http://www.w3.org/2000/svg">
<g filter="url(#filter0_d_496_7714)">
<rect x="2.61621" y="0.417603" width="37.1918" height="37.1918" rx="4.85197" fill="white"/>
</g>
<path d="M25.701 12.28C25.701 12.28 26.711 14.3001 25.701 16.7691M28.8434 10.4844C28.8434 10.4844 30.8634 14.1205 28.8434 18.5647M19.4163 17.6669C21.1517 17.6669 22.5586 16.26 22.5586 14.5246C22.5586 12.7891 21.1517 11.3822 19.4163 11.3822C17.6808 11.3822 16.2739 12.7891 16.2739 14.5246C16.2739 16.26 17.6808 17.6669 19.4163 17.6669ZM12.6826 27.0042V27.5429H26.1499V27.0042C26.1499 24.9929 26.1499 23.9873 25.7585 23.2191C25.4142 22.5433 24.8648 21.9939 24.189 21.6496C23.4208 21.2582 22.4152 21.2582 20.4039 21.2582H18.4287C16.4174 21.2582 15.4117 21.2582 14.6435 21.6496C13.9677 21.9939 13.4183 22.5433 13.074 23.2191C12.6826 23.9873 12.6826 24.9929 12.6826 27.0042Z" stroke="#035C74" stroke-width="1.32326" stroke-linecap="round" stroke-linejoin="round"/>
<path d="M25.7002 12.2799C25.7002 12.2799 26.7102 14.3 25.7002 16.769M28.8426 10.4843C28.8426 10.4843 30.8627 14.1205 28.8426 18.5647" stroke="#00BF91" stroke-width="1.32326" stroke-linecap="round" stroke-linejoin="round"/>
<defs>
<filter id="filter0_d_496_7714" x="0.85186" y="0.417603" width="40.7201" height="40.7205" filterUnits="userSpaceOnUse" color-interpolation-filters="sRGB">
<feFlood flood-opacity="0" result="BackgroundImageFix"/>
<feColorMatrix in="SourceAlpha" type="matrix" values="0 0 0 0 0 0 0 0 0 0 0 0 0 0 0 0 0 0 127 0" result="hardAlpha"/>
<feOffset dy="1.76435"/>
<feGaussianBlur stdDeviation="0.882176"/>
<feComposite in2="hardAlpha" operator="out"/>
<feColorMatrix type="matrix" values="0 0 0 0 0 0 0 0 0 0 0 0 0 0 0 0 0 0 0.25 0"/>
<feBlend mode="normal" in2="BackgroundImageFix" result="effect1_dropShadow_496_7714"/>
<feBlend mode="normal" in="SourceGraphic" in2="effect1_dropShadow_496_7714" result="shape"/>
</filter>
</defs>
</svg>
