<svg width="42" height="41" viewBox="0 0 42 41" fill="none" xmlns="http://www.w3.org/2000/svg">
<g filter="url(#filter0_d_496_7729)">
<rect x="2.63965" y="0.112305" width="37.1904" height="37.1904" rx="4.85178" fill="white"/>
</g>
<mask id="mask0_496_7729" style="mask-type:alpha" maskUnits="userSpaceOnUse" x="22" y="7" width="13" height="16">
<path d="M22.9668 8.10915C22.9668 7.5238 23.4413 7.04929 24.0267 7.04929H30.0326L34.272 11.2887V21.5341C34.272 22.1194 33.7975 22.594 33.2121 22.594H24.0267C23.4413 22.594 22.9668 22.1194 22.9668 21.5341V8.10915Z" fill="black"/>
</mask>
<g mask="url(#mask0_496_7729)">
<path d="M22.9668 8.10915C22.9668 7.5238 23.4413 7.04929 24.0267 7.04929H33.2121C33.7975 7.04929 34.272 7.5238 34.272 8.10915V21.5341C34.272 22.1194 33.7975 22.594 33.2121 22.594H24.0267C23.4413 22.594 22.9668 22.1194 22.9668 21.5341V8.10915Z" fill="#F4B70A"/>
<path d="M33.2109 22.5937C33.7962 22.5937 34.2704 22.1194 34.2705 21.5341V21.3769C34.2607 21.9538 33.7902 22.4189 33.2109 22.4189H24.0254C23.4402 22.4187 22.9658 21.9436 22.9658 21.3583V21.5341C22.9659 22.1193 23.4402 22.5936 24.0254 22.5937H33.2109Z" fill="#EFA904"/>
<path d="M33.2109 7.05096C33.7962 7.05096 34.2714 7.52527 34.2715 8.11053V8.28632C34.2713 7.70112 33.7962 7.22675 33.2109 7.22675H24.0254C23.4403 7.22693 22.966 7.70124 22.9658 8.28632V8.11053C22.9659 7.52539 23.4403 7.05115 24.0254 7.05096H33.2109Z" fill="#F6C028"/>
<path d="M34.2736 14.9102L30.4865 11.123C30.3196 10.9561 30.4378 10.6707 30.6739 10.6707H34.2736V14.9102Z" fill="url(#paint0_linear_496_7729)"/>
<path d="M30.0342 7.04913L34.2736 11.2886H31.094C30.5087 11.2886 30.0342 10.8141 30.0342 10.2287V7.04913Z" fill="#FADC87"/>
<path d="M31.0918 14.1155C31.2867 14.1157 31.4443 14.274 31.4443 14.469V19.4153C31.4441 19.61 31.2865 19.7676 31.0918 19.7678H26.1455C25.9506 19.7678 25.7923 19.6102 25.792 19.4153V14.469C25.792 14.2739 25.9504 14.1155 26.1455 14.1155H31.0918ZM26.4971 15.7053V18.179H30.7363V15.7053H26.4971Z" fill="white"/>
</g>
<mask id="mask1_496_7729" style="mask-type:alpha" maskUnits="userSpaceOnUse" x="15" y="14" width="12" height="17">
<path d="M15.583 15.8813C15.583 15.296 16.0575 14.8214 16.6429 14.8214H22.6488L26.8882 19.0609V29.3062C26.8882 29.8916 26.4137 30.3661 25.8284 30.3661H16.6429C16.0575 30.3661 15.583 29.8916 15.583 29.3062V15.8813Z" fill="black"/>
</mask>
<g mask="url(#mask1_496_7729)">
<path d="M15.583 15.8813C15.583 15.296 16.0575 14.8214 16.6429 14.8214H25.8284C26.4137 14.8214 26.8882 15.296 26.8882 15.8813V29.3062C26.8882 29.8916 26.4137 30.3661 25.8284 30.3661H16.6429C16.0575 30.3661 15.583 29.8916 15.583 29.3062V15.8813Z" fill="#20A464"/>
<path d="M25.8281 30.3659C26.4134 30.3659 26.8886 29.8916 26.8887 29.3063V29.1295C26.8887 29.7149 26.4135 30.1891 25.8281 30.1891H16.6426C16.0574 30.189 15.583 29.7148 15.583 29.1295V29.3063C15.5831 29.8916 16.0583 30.3659 16.6436 30.3659H25.8281Z" fill="#149456"/>
<path d="M25.8281 14.8226C26.4133 14.8226 26.8884 15.297 26.8887 15.8821V16.0579C26.8885 15.4727 26.4134 14.9984 25.8281 14.9984H16.6426C16.0575 14.9985 15.5832 15.4728 15.583 16.0579V15.8821C15.5832 15.297 16.0584 14.8226 16.6436 14.8226H25.8281Z" fill="#38AE74"/>
<path d="M26.8898 22.6824L23.1027 18.8953C22.9358 18.7284 23.054 18.443 23.2901 18.443H26.8898V22.6824Z" fill="url(#paint1_linear_496_7729)"/>
<path d="M22.6504 14.8214L26.8898 19.0608H23.7103C23.1249 19.0608 22.6504 18.5863 22.6504 18.0009V14.8214Z" fill="#8ED1B1"/>
<path d="M24.0625 27.5407H18.4102V22.4167H24.0625V27.5407ZM21.5908 26.8336H23.3564V25.9489H21.5908V26.8336ZM19.1172 26.8336H20.8838V25.9489H19.1172V26.8336ZM21.5908 25.4196H23.3564V24.5368H21.5908V25.4196ZM19.1172 25.4196H20.8838V24.5368H19.1172V25.4196ZM21.5908 24.0065H23.3564V23.1237H21.5908V24.0065ZM19.1172 24.0065H20.8838V23.1237H19.1172V24.0065Z" fill="white"/>
</g>
<mask id="mask2_496_7729" style="mask-type:alpha" maskUnits="userSpaceOnUse" x="8" y="7" width="12" height="16">
<path d="M8.20215 8.10903C8.20215 7.52368 8.67667 7.04916 9.26201 7.04916H15.2679L19.5074 11.2886V21.534C19.5074 22.1193 19.0328 22.5938 18.4475 22.5938H9.26201C8.67667 22.5938 8.20215 22.1193 8.20215 21.534V8.10903Z" fill="black"/>
</mask>
<g mask="url(#mask2_496_7729)">
<path d="M8.20215 8.10903C8.20215 7.52368 8.67667 7.04916 9.26201 7.04916H18.4475C19.0328 7.04916 19.5074 7.52368 19.5074 8.10903V21.534C19.5074 22.1193 19.0328 22.5938 18.4475 22.5938H9.26201C8.67667 22.5938 8.20215 22.1193 8.20215 21.534V8.10903Z" fill="#4E8DF5"/>
<path d="M18.4473 22.5936C19.0326 22.5936 19.5077 22.1193 19.5078 21.5341V21.3583C19.5078 21.9436 19.0326 22.4188 18.4473 22.4188H9.26172C8.6765 22.4187 8.20215 21.9435 8.20215 21.3583V21.5341C8.20224 22.1192 8.67665 22.5934 9.26172 22.5936H18.4473Z" fill="#417EE9"/>
<path d="M18.4473 7.05029C19.0326 7.05029 19.5078 7.52549 19.5078 8.11084V8.28662C19.5076 7.70143 19.0325 7.22705 18.4473 7.22705H9.26172C8.67661 7.2272 8.20233 7.70152 8.20215 8.28662V8.11084C8.20215 7.52565 8.67659 7.05055 9.26172 7.05029H18.4473Z" fill="#639AF6"/>
<path d="M19.5061 14.9103L15.7189 11.1232C15.552 10.9563 15.6702 10.6709 15.9063 10.6709H19.5061V14.9103Z" fill="url(#paint2_linear_496_7729)"/>
<path d="M15.2666 7.04922L19.5061 11.2887H16.3265C15.7411 11.2887 15.2666 10.8142 15.2666 10.2288V7.04922Z" fill="#A6C5FA"/>
<path d="M15.2666 19.7687H11.0273V19.0616H15.2666V19.7687ZM16.6797 18.3546H11.0273V17.6486H16.6797V18.3546ZM16.6797 16.9425H11.0273V16.2355H16.6797V16.9425ZM16.6797 15.5284H11.0273V14.8214H16.6797V15.5284Z" fill="white"/>
</g>
<defs>
<filter id="filter0_d_496_7729" x="0.875363" y="0.112305" width="40.719" height="40.719" filterUnits="userSpaceOnUse" color-interpolation-filters="sRGB">
<feFlood flood-opacity="0" result="BackgroundImageFix"/>
<feColorMatrix in="SourceAlpha" type="matrix" values="0 0 0 0 0 0 0 0 0 0 0 0 0 0 0 0 0 0 127 0" result="hardAlpha"/>
<feOffset dy="1.76429"/>
<feGaussianBlur stdDeviation="0.882143"/>
<feComposite in2="hardAlpha" operator="out"/>
<feColorMatrix type="matrix" values="0 0 0 0 0 0 0 0 0 0 0 0 0 0 0 0 0 0 0.25 0"/>
<feBlend mode="normal" in2="BackgroundImageFix" result="effect1_dropShadow_496_7729"/>
<feBlend mode="normal" in="SourceGraphic" in2="effect1_dropShadow_496_7729" result="shape"/>
</filter>
<linearGradient id="paint0_linear_496_7729" x1="32.1539" y1="14.9102" x2="32.1539" y2="10.5824" gradientUnits="userSpaceOnUse">
<stop stop-color="#F4B70A"/>
<stop offset="1" stop-color="#E2930A"/>
</linearGradient>
<linearGradient id="paint1_linear_496_7729" x1="24.7701" y1="22.6824" x2="24.7701" y2="18.3546" gradientUnits="userSpaceOnUse">
<stop stop-color="#20A464"/>
<stop offset="1" stop-color="#207E55"/>
</linearGradient>
<linearGradient id="paint2_linear_496_7729" x1="17.3863" y1="14.9103" x2="17.3863" y2="10.5825" gradientUnits="userSpaceOnUse">
<stop stop-color="#4E8DF5"/>
<stop offset="1" stop-color="#3D6ACD"/>
</linearGradient>
</defs>
</svg>
