<svg width="41" height="42" viewBox="0 0 41 42" fill="none" xmlns="http://www.w3.org/2000/svg">
<g filter="url(#filter0_d_496_7669)">
<rect x="1.82617" y="0.651367" width="37.1904" height="37.1904" rx="4.85178" fill="white"/>
</g>
<path d="M18.6416 31.171L33.4707 31.171" stroke="#035C74" stroke-width="1.32321" stroke-linecap="round" stroke-linejoin="round"/>
<path d="M31.783 20.4787H26.1555C25.8447 20.4787 25.5928 20.7307 25.5928 21.0414V30.6082C25.5928 30.919 25.8447 31.1709 26.1555 31.1709H31.783C32.0938 31.1709 32.3458 30.919 32.3458 30.6082V21.0414C32.3458 20.7307 32.0938 20.4787 31.783 20.4787Z" stroke="#035C74" stroke-width="1.32321" stroke-linejoin="round"/>
<path d="M27.9637 22.1673H27.7204C27.4768 22.1673 27.2793 22.3648 27.2793 22.6084V22.8517C27.2793 23.0953 27.4768 23.2928 27.7204 23.2928H27.9637C28.2073 23.2928 28.4048 23.0953 28.4048 22.8517V22.6084C28.4048 22.3648 28.2073 22.1673 27.9637 22.1673Z" fill="#035C74"/>
<path d="M30.2157 22.1673H29.9723C29.7287 22.1673 29.5312 22.3648 29.5312 22.6084V22.8517C29.5312 23.0953 29.7287 23.2928 29.9723 23.2928H30.2157C30.4593 23.2928 30.6567 23.0953 30.6567 22.8517V22.6084C30.6567 22.3648 30.4593 22.1673 30.2157 22.1673Z" fill="#035C74"/>
<path d="M27.9637 24.1365H27.7204C27.4768 24.1365 27.2793 24.334 27.2793 24.5776V24.821C27.2793 25.0646 27.4768 25.262 27.7204 25.262H27.9637C28.2073 25.262 28.4048 25.0646 28.4048 24.821V24.5776C28.4048 24.334 28.2073 24.1365 27.9637 24.1365Z" fill="#035C74"/>
<path d="M30.2157 24.1365H29.9723C29.7287 24.1365 29.5312 24.334 29.5312 24.5776V24.821C29.5312 25.0646 29.7287 25.262 29.9723 25.262H30.2157C30.4593 25.262 30.6567 25.0646 30.6567 24.821V24.5776C30.6567 24.334 30.4593 24.1365 30.2157 24.1365Z" fill="#035C74"/>
<path d="M30.2157 26.1063H29.9723C29.7287 26.1063 29.5312 26.3038 29.5312 26.5474V26.7908C29.5312 27.0343 29.7287 27.2318 29.9723 27.2318H30.2157C30.4593 27.2318 30.6567 27.0343 30.6567 26.7908V26.5474C30.6567 26.3038 30.4593 26.1063 30.2157 26.1063Z" fill="#035C74"/>
<path d="M30.2157 28.0756H29.9723C29.7287 28.0756 29.5312 28.273 29.5312 28.5166V28.76C29.5312 29.0036 29.7287 29.2011 29.9723 29.2011H30.2157C30.4593 29.2011 30.6567 29.0036 30.6567 28.76V28.5166C30.6567 28.273 30.4593 28.0756 30.2157 28.0756Z" fill="#035C74"/>
<path d="M7.37109 31.1699H20.8771M12.7735 30.4946V25.0922C12.7735 24.7193 12.4711 24.4169 12.0982 24.4169H9.39699C9.02403 24.4169 8.72169 24.7193 8.72169 25.0922V30.4946C8.72169 30.8676 9.02403 31.1699 9.39699 31.1699H12.0982C12.4711 31.1699 12.7735 30.8676 12.7735 30.4946ZM12.7735 30.4946C12.7735 30.8676 13.0758 31.1699 13.4488 31.1699H18.8512C19.2241 31.1699 19.5265 30.8676 19.5265 30.4946V19.0145C19.5265 18.6416 19.2241 18.3392 18.8512 18.3392H13.4488C13.0758 18.3392 12.7735 18.6416 12.7735 19.0145V30.4946ZM15.4747 27.7962H16.8253M15.4747 24.7574H16.8253M15.4747 21.7185H16.8253" stroke="#035C74" stroke-width="1.32321" stroke-linecap="round" stroke-linejoin="round"/>
<path d="M19.9459 7.259C22.1429 7.0372 24.2233 7.72288 25.813 9.01094C26.5914 9.64168 27.2528 10.4172 27.7533 11.3021C27.866 11.5015 27.7958 11.7546 27.5964 11.8674C27.397 11.9802 27.1439 11.91 27.0311 11.7106C26.5826 10.9174 25.9893 10.2216 25.2906 9.65551C23.864 8.49971 21.9997 7.88565 20.0292 8.08458C19.0408 8.18437 18.1203 8.47905 17.3011 8.92631C16.4774 9.37603 15.7555 9.98046 15.1703 10.697C14.6074 11.3864 14.1714 12.1791 13.8933 13.0369C13.7015 13.6288 13.585 14.2521 13.5536 14.8945L14.9912 13.2554C15.1361 13.0779 15.3974 13.0516 15.5749 13.1965C15.7523 13.3414 15.7787 13.6027 15.6338 13.7802L13.4903 16.2841C13.3454 16.4615 13.0841 16.4879 12.9066 16.343L10.3859 14.1887C10.2084 14.0437 10.1821 13.7824 10.327 13.605C10.4719 13.4275 10.7332 13.4011 10.9107 13.546L12.7168 15.1166C12.7299 14.3077 12.8637 13.5225 13.1041 12.781C13.4143 11.8239 13.9005 10.9403 14.5277 10.1722C15.1796 9.37388 15.9843 8.69972 16.9034 8.1979C17.8181 7.6985 18.8453 7.37011 19.9459 7.259Z" fill="#00BF91"/>
<path d="M25.813 9.01094L25.9518 8.83959L25.9518 8.83959L25.813 9.01094ZM27.7533 11.3021L27.9452 11.1936L27.9452 11.1935L27.7533 11.3021ZM27.5964 11.8674L27.705 12.0594L27.705 12.0594L27.5964 11.8674ZM27.0311 11.7106L26.8391 11.8191L26.8392 11.8192L27.0311 11.7106ZM25.2906 9.65551L25.4294 9.48416L25.4294 9.48416L25.2906 9.65551ZM17.3011 8.92631L17.1954 8.73275L17.1954 8.73275L17.3011 8.92631ZM13.8933 13.0369L13.6835 12.9689L13.6835 12.9689L13.8933 13.0369ZM13.5536 14.8945L13.3334 14.8837C13.3288 14.9774 13.384 15.0637 13.4709 15.0989C13.5579 15.1341 13.6576 15.1104 13.7194 15.0399L13.5536 14.8945ZM14.9912 13.2554L15.1571 13.4009L15.162 13.3949L14.9912 13.2554ZM15.6338 13.7802L15.8014 13.9237L15.8046 13.9197L15.6338 13.7802ZM13.4903 16.2841L13.3227 16.1406L13.3195 16.1446L13.4903 16.2841ZM12.9066 16.343L12.7633 16.5107L12.7671 16.5138L12.9066 16.343ZM10.3859 14.1887L10.5292 14.021L10.5254 14.0178L10.3859 14.1887ZM10.9107 13.546L11.0555 13.3795L11.0502 13.3752L10.9107 13.546ZM12.7168 15.1166L12.5721 15.283C12.6368 15.3393 12.7283 15.3529 12.8066 15.318C12.885 15.2831 12.9359 15.2059 12.9373 15.1201L12.7168 15.1166ZM13.1041 12.781L12.8943 12.713L12.8943 12.713L13.1041 12.781ZM16.9034 8.1979L16.7977 8.00433L16.7977 8.00433L16.9034 8.1979ZM19.9459 7.259L19.968 7.47842C22.1049 7.2627 24.1278 7.92936 25.6742 9.18229L25.813 9.01094L25.9518 8.83959C24.3187 7.51639 22.181 6.8117 19.9237 7.03958L19.9459 7.259ZM25.813 9.01094L25.6742 9.18229C26.4314 9.79586 27.0747 10.5501 27.5613 11.4107L27.7533 11.3021L27.9452 11.1935C27.431 10.2842 26.7515 9.48749 25.9518 8.83959L25.813 9.01094ZM27.7533 11.3021L27.5613 11.4107C27.6141 11.5041 27.5812 11.6226 27.4878 11.6755L27.5964 11.8674L27.705 12.0594C28.0104 11.8866 28.1179 11.499 27.9452 11.1936L27.7533 11.3021ZM27.5964 11.8674L27.4879 11.6755C27.3944 11.7283 27.2759 11.6954 27.223 11.602L27.0311 11.7106L26.8392 11.8192C27.0119 12.1245 27.3995 12.2321 27.705 12.0594L27.5964 11.8674ZM27.0311 11.7106L27.2231 11.602C26.7608 10.7845 26.1493 10.0674 25.4294 9.48416L25.2906 9.65551L25.1517 9.82686C25.8293 10.3758 26.4044 11.0504 26.8391 11.8191L27.0311 11.7106ZM25.2906 9.65551L25.4294 9.48416C23.9595 8.29321 22.0377 7.66015 20.007 7.86516L20.0292 8.08458L20.0513 8.304C21.9616 8.11115 23.7686 8.70621 25.1517 9.82686L25.2906 9.65551ZM20.0292 8.08458L20.007 7.86516C18.9889 7.96796 18.04 8.27163 17.1954 8.73275L17.3011 8.92631L17.4068 9.11988C18.2006 8.68646 19.0928 8.40078 20.0513 8.304L20.0292 8.08458ZM17.3011 8.92631L17.1954 8.73275C16.3463 9.19632 15.6024 9.81924 14.9995 10.5575L15.1703 10.697L15.3412 10.8365C15.9086 10.1417 16.6085 9.55574 17.4068 9.11988L17.3011 8.92631ZM15.1703 10.697L14.9995 10.5575C14.4195 11.2678 13.9701 12.0847 13.6835 12.9689L13.8933 13.0369L14.1031 13.1049C14.3726 12.2735 14.7953 11.505 15.3412 10.8365L15.1703 10.697ZM13.8933 13.0369L13.6835 12.9689C13.4857 13.5792 13.3657 14.2217 13.3334 14.8837L13.5536 14.8945L13.7739 14.9052C13.8043 14.2826 13.9172 13.6785 14.1031 13.1049L13.8933 13.0369ZM13.5536 14.8945L13.7194 15.0399L15.157 13.4008L14.9912 13.2554L14.8254 13.11L13.3878 14.749L13.5536 14.8945ZM14.9912 13.2554L15.162 13.3949C15.2299 13.3118 15.3522 13.2994 15.4354 13.3673L15.5749 13.1965L15.7144 13.0257C15.4425 12.8037 15.0423 12.8441 14.8203 13.1159L14.9912 13.2554ZM15.5749 13.1965L15.4354 13.3673C15.5185 13.4352 15.5309 13.5576 15.463 13.6407L15.6338 13.7802L15.8046 13.9197C16.0266 13.6479 15.9862 13.2476 15.7144 13.0257L15.5749 13.1965ZM15.6338 13.7802L15.4663 13.6368L13.3228 16.1406L13.4903 16.2841L13.6578 16.4275L15.8013 13.9236L15.6338 13.7802ZM13.4903 16.2841L13.3195 16.1446C13.2516 16.2277 13.1292 16.2401 13.0461 16.1722L12.9066 16.343L12.7671 16.5138C13.0389 16.7358 13.4392 16.6954 13.6611 16.4235L13.4903 16.2841ZM12.9066 16.343L13.0499 16.1753L10.5292 14.021L10.3859 14.1887L10.2426 14.3563L12.7633 16.5106L12.9066 16.343ZM10.3859 14.1887L10.5254 14.0178C10.4423 13.95 10.4299 13.8276 10.4978 13.7444L10.327 13.605L10.1562 13.4655C9.93421 13.7373 9.97461 14.1375 10.2464 14.3595L10.3859 14.1887ZM10.327 13.605L10.4978 13.7444C10.5657 13.6613 10.6881 13.649 10.7712 13.7168L10.9107 13.546L11.0502 13.3752C10.7784 13.1532 10.3781 13.1936 10.1562 13.4655L10.327 13.605ZM10.9107 13.546L10.766 13.7124L12.5721 15.283L12.7168 15.1166L12.8615 14.9502L11.0554 13.3796L10.9107 13.546ZM12.7168 15.1166L12.9373 15.1201C12.95 14.3333 13.0802 13.5699 13.3139 12.849L13.1041 12.781L12.8943 12.713C12.6473 13.4751 12.5097 14.282 12.4963 15.113L12.7168 15.1166ZM13.1041 12.781L13.3139 12.849C13.6155 11.9183 14.0884 11.0589 14.6985 10.3117L14.5277 10.1722L14.3569 10.0327C13.7126 10.8217 13.2131 11.7295 12.8943 12.713L13.1041 12.781ZM14.5277 10.1722L14.6985 10.3117C15.3327 9.53508 16.1154 8.87941 17.0091 8.39146L16.9034 8.1979L16.7977 8.00433C15.8532 8.52002 15.0265 9.21269 14.3569 10.0327L14.5277 10.1722ZM16.9034 8.1979L17.0091 8.39146C17.8984 7.90593 18.8972 7.58652 19.968 7.47842L19.9459 7.259L19.9237 7.03958C18.7934 7.1537 17.7378 7.49108 16.7977 8.00433L16.9034 8.1979Z" fill="#00BF91"/>
<path d="M28.0165 14.8694C28.0147 14.7089 28.0069 14.5497 27.9948 14.392L26.8459 15.6785C26.6653 15.853 26.4688 15.9322 26.2744 15.811C26.08 15.6897 26.0208 15.434 26.142 15.2396L27.8829 13.0035C28.0042 12.8091 28.2602 12.7498 28.4546 12.8711L30.9342 14.4596C31.1286 14.5808 31.1879 14.8368 31.0666 15.0313C30.9454 15.2257 30.6894 15.285 30.495 15.1637L28.7973 14.0627C28.8262 14.3248 28.8431 14.5908 28.8462 14.8598C28.8521 15.3681 28.8108 15.8664 28.7259 16.3501C28.6261 16.9186 28.4664 17.4669 28.2537 17.988C28.1436 18.2575 28.0574 18.3765 27.9564 18.5651C27.8483 18.7671 27.5969 18.8431 27.3949 18.735C27.1929 18.6269 27.1169 18.3755 27.225 18.1735C27.3712 17.9004 27.396 17.8931 27.4853 17.6743C27.6759 17.2073 27.8191 16.7161 27.9085 16.2067C27.9845 15.7731 28.0218 15.3262 28.0165 14.8694Z" fill="#00BF91"/>
<path d="M28.0165 14.8694L28.237 14.8668L28.237 14.8668L28.0165 14.8694ZM27.9948 14.392L28.2147 14.3751C28.2079 14.287 28.1492 14.2114 28.0654 14.1831C27.9817 14.1548 27.8892 14.1792 27.8303 14.2451L27.9948 14.392ZM26.8459 15.6785L26.9991 15.8371C27.003 15.8334 27.0067 15.8295 27.0103 15.8254L26.8459 15.6785ZM26.2744 15.811L26.1577 15.9981L26.1578 15.9981L26.2744 15.811ZM26.142 15.2396L25.968 15.1041C25.9633 15.1101 25.9589 15.1164 25.9548 15.1229L26.142 15.2396ZM27.8829 13.0035L28.0569 13.139C28.0616 13.133 28.066 13.1267 28.07 13.1202L27.8829 13.0035ZM28.4546 12.8711L28.5736 12.6853L28.5713 12.6839L28.4546 12.8711ZM30.9342 14.4596L30.8152 14.6453L30.8175 14.6467L30.9342 14.4596ZM31.0666 15.0313L31.2538 15.1479L31.2538 15.1479L31.0666 15.0313ZM30.495 15.1637L30.3749 15.3488L30.3783 15.3509L30.495 15.1637ZM28.7973 14.0627L28.9173 13.8777C28.8459 13.8313 28.7541 13.8303 28.6816 13.875C28.6091 13.9197 28.5688 14.0022 28.5781 14.0868L28.7973 14.0627ZM28.8462 14.8598L29.0667 14.8573L29.0667 14.8573L28.8462 14.8598ZM28.7259 16.3501L28.9431 16.3883L28.7259 16.3501ZM28.2537 17.988L28.4578 18.0713L28.4578 18.0713L28.2537 17.988ZM27.9564 18.5651L28.1508 18.6692L28.1508 18.6692L27.9564 18.5651ZM27.3949 18.735L27.2908 18.9294L27.2908 18.9295L27.3949 18.735ZM27.225 18.1735L27.0306 18.0694L27.0306 18.0694L27.225 18.1735ZM27.4853 17.6743L27.6895 17.7576L27.6895 17.7576L27.4853 17.6743ZM27.9085 16.2067L28.1257 16.2448L28.1257 16.2448L27.9085 16.2067ZM28.0165 14.8694L28.237 14.8668C28.2351 14.701 28.2271 14.5369 28.2147 14.3751L27.9948 14.392L27.7749 14.4089C27.7867 14.5624 27.7942 14.7168 27.796 14.8719L28.0165 14.8694ZM27.9948 14.392L27.8303 14.2451L26.6814 15.5316L26.8459 15.6785L27.0103 15.8254L28.1593 14.5389L27.9948 14.392ZM26.8459 15.6785L26.6926 15.5199C26.6163 15.5936 26.5535 15.6301 26.5067 15.643C26.4691 15.6534 26.4351 15.6513 26.3911 15.6238L26.2744 15.811L26.1578 15.9981C26.3082 16.0919 26.4696 16.1108 26.6239 16.0682C26.7691 16.0282 26.8948 15.9379 26.9991 15.8371L26.8459 15.6785ZM26.2744 15.811L26.3911 15.6238C26.3001 15.5671 26.2723 15.4474 26.3291 15.3562L26.142 15.2396L25.9548 15.1229C25.7692 15.4206 25.8599 15.8124 26.1577 15.9981L26.2744 15.811ZM26.142 15.2396L26.316 15.375L28.0569 13.139L27.8829 13.0035L27.7089 12.868L25.968 15.1041L26.142 15.2396ZM27.8829 13.0035L28.07 13.1202C28.1268 13.0292 28.2468 13.0014 28.3379 13.0582L28.4546 12.8711L28.5713 12.6839C28.2736 12.4983 27.8815 12.5891 27.6958 12.8868L27.8829 13.0035ZM28.4546 12.8711L28.3356 13.0567L30.8152 14.6453L30.9342 14.4596L31.0531 14.2739L28.5736 12.6854L28.4546 12.8711ZM30.9342 14.4596L30.8175 14.6467C30.9085 14.7035 30.9363 14.8234 30.8795 14.9146L31.0666 15.0313L31.2538 15.1479C31.4394 14.8502 31.3487 14.4582 31.0509 14.2724L30.9342 14.4596ZM31.0666 15.0313L30.8795 14.9146C30.8228 15.0056 30.7028 15.0334 30.6117 14.9766L30.495 15.1637L30.3783 15.3509C30.676 15.5365 31.068 15.4458 31.2538 15.1479L31.0666 15.0313ZM30.495 15.1637L30.615 14.9787L28.9173 13.8777L28.7973 14.0627L28.6773 14.2477L30.375 15.3487L30.495 15.1637ZM28.7973 14.0627L28.5781 14.0868C28.6063 14.3421 28.6227 14.6009 28.6257 14.8623L28.8462 14.8598L29.0667 14.8573C29.0636 14.5807 29.0462 14.3075 29.0165 14.0385L28.7973 14.0627ZM28.8462 14.8598L28.6257 14.8623C28.6314 15.357 28.5912 15.8417 28.5087 16.312L28.7259 16.3501L28.9431 16.3883C29.0304 15.891 29.0727 15.3792 29.0667 14.8573L28.8462 14.8598ZM28.7259 16.3501L28.5087 16.312C28.4117 16.8648 28.2564 17.3979 28.0495 17.9046L28.2537 17.988L28.4578 18.0713C28.6764 17.5359 28.8406 16.9725 28.9431 16.3883L28.7259 16.3501ZM28.2537 17.988L28.0495 17.9046C27.9451 18.1604 27.8737 18.2524 27.762 18.4611L27.9564 18.5651L28.1508 18.6692C28.2411 18.5007 28.3422 18.3546 28.4578 18.0713L28.2537 17.988ZM27.9564 18.5651L27.762 18.461C27.7113 18.5556 27.5936 18.5913 27.499 18.5406L27.3949 18.735L27.2908 18.9295C27.6001 19.095 27.9852 18.9786 28.1508 18.6692L27.9564 18.5651ZM27.3949 18.735L27.499 18.5406C27.4044 18.49 27.3688 18.3722 27.4194 18.2776L27.225 18.1735L27.0306 18.0694C26.865 18.3788 26.9814 18.7638 27.2908 18.9294L27.3949 18.735ZM27.225 18.1735L27.4194 18.2776C27.5519 18.0301 27.5948 17.9895 27.6895 17.7576L27.4853 17.6743L27.2811 17.5909C27.1971 17.7968 27.1904 17.7707 27.0306 18.0694L27.225 18.1735ZM27.4853 17.6743L27.6895 17.7576C27.886 17.2763 28.0335 16.77 28.1257 16.2448L27.9085 16.2067L27.6912 16.1685C27.6046 16.6623 27.4659 17.1384 27.2811 17.5909L27.4853 17.6743ZM27.9085 16.2067L28.1257 16.2448C28.2041 15.7979 28.2424 15.3373 28.237 14.8668L28.0165 14.8694L27.796 14.8719C27.8011 15.315 27.765 15.7484 27.6912 16.1685L27.9085 16.2067Z" fill="#00BF91"/>
<defs>
<filter id="filter0_d_496_7669" x="0.0618868" y="0.651367" width="40.719" height="40.719" filterUnits="userSpaceOnUse" color-interpolation-filters="sRGB">
<feFlood flood-opacity="0" result="BackgroundImageFix"/>
<feColorMatrix in="SourceAlpha" type="matrix" values="0 0 0 0 0 0 0 0 0 0 0 0 0 0 0 0 0 0 127 0" result="hardAlpha"/>
<feOffset dy="1.76429"/>
<feGaussianBlur stdDeviation="0.882143"/>
<feComposite in2="hardAlpha" operator="out"/>
<feColorMatrix type="matrix" values="0 0 0 0 0 0 0 0 0 0 0 0 0 0 0 0 0 0 0.25 0"/>
<feBlend mode="normal" in2="BackgroundImageFix" result="effect1_dropShadow_496_7669"/>
<feBlend mode="normal" in="SourceGraphic" in2="effect1_dropShadow_496_7669" result="shape"/>
</filter>
</defs>
</svg>
