<svg width="42" height="42" viewBox="0 0 42 42" fill="none" xmlns="http://www.w3.org/2000/svg">
<g filter="url(#filter0_d_496_7685)">
<rect x="2.62988" y="0.488159" width="37.1922" height="37.1922" rx="4.85202" fill="white"/>
<path d="M16.0559 19.0847C16.0559 20.2271 15.1298 21.1532 13.9874 21.1532C12.845 21.1532 11.9189 20.2271 11.9189 19.0847C11.9189 17.9423 12.845 17.0162 13.9874 17.0162C15.1298 17.0162 16.0559 17.9423 16.0559 19.0847ZM16.0559 19.0847H26.3983M26.3983 11.845C26.3983 12.9874 27.3244 13.9135 28.4668 13.9135C29.6092 13.9135 30.5353 12.9874 30.5353 11.845C30.5353 10.7026 29.6092 9.77655 28.4668 9.77655C27.3244 9.77655 26.3983 10.7026 26.3983 11.845ZM26.3983 11.845H21.9572C20.9828 11.845 20.1929 12.635 20.1929 13.6094V24.56C20.1929 25.5345 20.9828 26.3244 21.9572 26.3244H26.3983M26.3983 19.0847C26.3983 20.2271 27.3244 21.1532 28.4668 21.1532C29.6092 21.1532 30.5353 20.2271 30.5353 19.0847C30.5353 17.9423 29.6092 17.0162 28.4668 17.0162C27.3244 17.0162 26.3983 17.9423 26.3983 19.0847ZM26.3983 26.3244C26.3983 27.4668 27.3244 28.3929 28.4668 28.3929C29.6092 28.3929 30.5353 27.4668 30.5353 26.3244C30.5353 25.182 29.6092 24.2559 28.4668 24.2559C27.3244 24.2559 26.3983 25.182 26.3983 26.3244Z" stroke="#035C74" stroke-width="1.32328" stroke-linecap="round" stroke-linejoin="round"/>
<path d="M13.9864 21.1532C15.1288 21.1532 16.0549 20.2271 16.0549 19.0847C16.0549 17.9423 15.1288 17.0162 13.9864 17.0162C12.8441 17.0162 11.918 17.9423 11.918 19.0847C11.918 20.2271 12.8441 21.1532 13.9864 21.1532Z" stroke="#00BF91" stroke-width="1.32328" stroke-linecap="round" stroke-linejoin="round"/>
<path d="M28.4658 13.9135C29.6082 13.9135 30.5343 12.9874 30.5343 11.845C30.5343 10.7026 29.6082 9.77655 28.4658 9.77655C27.3234 9.77655 26.3973 10.7026 26.3973 11.845C26.3973 12.9874 27.3234 13.9135 28.4658 13.9135Z" stroke="#00BF91" stroke-width="1.32328" stroke-linecap="round" stroke-linejoin="round"/>
<path d="M28.4658 21.1532C29.6082 21.1532 30.5343 20.2271 30.5343 19.0847C30.5343 17.9423 29.6082 17.0162 28.4658 17.0162C27.3234 17.0162 26.3973 17.9423 26.3973 19.0847C26.3973 20.2271 27.3234 21.1532 28.4658 21.1532Z" stroke="#00BF91" stroke-width="1.32328" stroke-linecap="round" stroke-linejoin="round"/>
<path d="M28.4658 28.3929C29.6082 28.3929 30.5343 27.4668 30.5343 26.3244C30.5343 25.182 29.6082 24.2559 28.4658 24.2559C27.3234 24.2559 26.3973 25.182 26.3973 26.3244C26.3973 27.4668 27.3234 28.3929 28.4658 28.3929Z" stroke="#00BF91" stroke-width="1.32328" stroke-linecap="round" stroke-linejoin="round"/>
</g>
<defs>
<filter id="filter0_d_496_7685" x="0.865512" y="0.488159" width="40.7211" height="40.7209" filterUnits="userSpaceOnUse" color-interpolation-filters="sRGB">
<feFlood flood-opacity="0" result="BackgroundImageFix"/>
<feColorMatrix in="SourceAlpha" type="matrix" values="0 0 0 0 0 0 0 0 0 0 0 0 0 0 0 0 0 0 127 0" result="hardAlpha"/>
<feOffset dy="1.76437"/>
<feGaussianBlur stdDeviation="0.882185"/>
<feComposite in2="hardAlpha" operator="out"/>
<feColorMatrix type="matrix" values="0 0 0 0 0 0 0 0 0 0 0 0 0 0 0 0 0 0 0.25 0"/>
<feBlend mode="normal" in2="BackgroundImageFix" result="effect1_dropShadow_496_7685"/>
<feBlend mode="normal" in="SourceGraphic" in2="effect1_dropShadow_496_7685" result="shape"/>
</filter>
</defs>
</svg>
