<svg width="44" height="42" viewBox="0 0 44 42" fill="none" xmlns="http://www.w3.org/2000/svg">
<path d="M0.215495 36.6139V33.1198H7.02428L5.3314 31.4986C3.41704 29.7275 2.0559 27.7451 1.24799 25.5516C0.440086 23.3581 0.0361328 21.1415 0.0361328 18.9018C0.0361328 14.8763 1.21499 11.2665 3.57272 8.07255C5.93044 4.87858 9.02211 2.68585 12.8477 1.49437V5.17654C10.0377 6.27524 7.7823 8.07526 6.08146 10.5766C4.38062 13.0776 3.53021 15.8527 3.53021 18.9018C3.53021 20.7234 3.87515 22.4928 4.56503 24.2099C5.25492 25.9271 6.32857 27.5143 7.78599 28.9718L9.26398 30.4503V24.0713H12.7581V36.6139H0.215495ZM39.4831 16.0303H35.9535C35.7147 14.6715 35.2675 13.3597 34.6117 12.0948C33.9564 10.8303 33.0776 9.63517 31.9755 8.50931L30.4975 7.03073V13.4097H27.0034V0.867188H39.5459V4.36126H32.7372L34.43 5.98251C35.9026 7.49389 37.0473 9.09456 37.8641 10.7845C38.6806 12.4749 39.2202 14.2235 39.4831 16.0303ZM31.5276 41.8102L31.053 39.0551C30.3779 38.861 29.7955 38.6236 29.306 38.3429C28.816 38.0622 28.3352 37.7143 27.8635 37.2993L25.247 38.2357L23.4109 35.2611L25.5743 33.4244C25.3922 32.7318 25.3012 32.0778 25.3012 31.4625C25.3012 30.8471 25.3922 30.1931 25.5743 29.5005L23.4109 27.6638L25.247 24.6892L27.8635 25.6256C28.3352 25.2106 28.816 24.8627 29.306 24.582C29.7955 24.3014 30.3779 24.0639 31.053 23.8698L31.5276 21.1148H35.0217L35.4963 23.8698C36.1714 24.0639 36.7538 24.3072 37.2434 24.5995C37.7333 24.8922 38.2141 25.2581 38.6858 25.6972L41.3017 24.6892L43.1384 27.7354L40.975 29.5722C41.1571 30.217 41.2481 30.8591 41.2481 31.4986C41.2481 32.1376 41.1571 32.7795 40.975 33.4244L43.1384 35.2611L41.3017 38.2357L38.6858 37.2993C38.2141 37.7143 37.7333 38.0622 37.2434 38.3429C36.7538 38.6236 36.1714 38.861 35.4963 39.0551L35.0217 41.8102H31.5276ZM33.2747 36.3006C34.6005 36.3006 35.7382 35.8258 36.6878 34.8762C37.6378 33.9262 38.1128 32.7883 38.1128 31.4625C38.1128 30.1367 37.6378 28.9987 36.6878 28.0487C35.7382 27.0991 34.6005 26.6243 33.2747 26.6243C31.9489 26.6243 30.811 27.0991 29.861 28.0487C28.9113 28.9987 28.4365 30.1367 28.4365 31.4625C28.4365 32.7883 28.9113 33.9262 29.861 34.8762C30.811 35.8258 31.9489 36.3006 33.2747 36.3006Z" fill="url(#paint0_linear_496_7808)"/>
<defs>
<linearGradient id="paint0_linear_496_7808" x1="15.2941" y1="-4.53383" x2="61.7074" y2="75.4499" gradientUnits="userSpaceOnUse">
<stop stop-color="#09DFAB"/>
<stop offset="1" stop-color="#001356"/>
</linearGradient>
</defs>
</svg>
