<svg width="42" height="42" viewBox="0 0 42 42" fill="none" xmlns="http://www.w3.org/2000/svg">
<g filter="url(#filter0_d_496_7725)">
<rect x="2.44824" y="0.564819" width="37.1922" height="37.1922" rx="4.85202" fill="white"/>
<path d="M29.5007 17.7656C29.619 16.9724 29.5802 16.1604 29.3844 15.3796C29.1258 14.3481 28.5931 13.3713 27.7865 12.5647C26.9799 11.7581 26.0031 11.2254 24.9716 10.9668C24.1908 10.771 23.3787 10.7322 22.5855 10.8505M25.9506 17.39C26.0772 16.5403 25.8135 15.6436 25.1594 14.9895C24.5053 14.3355 23.6086 14.0717 22.759 14.1984M16.6827 12.2405C17.0225 12.2405 17.3356 12.4248 17.5006 12.7219L18.6449 14.7832C18.7947 15.0531 18.8017 15.3795 18.6637 15.6556L17.5613 17.8604C17.5613 17.8604 17.8808 19.5028 19.2178 20.8398C20.5548 22.1768 22.1917 22.4908 22.1917 22.4908L24.3962 21.3886C24.6725 21.2504 24.9991 21.2576 25.2691 21.4077L27.3362 22.5569C27.633 22.7219 27.8171 23.0349 27.8171 23.3745V25.7476C27.8171 26.9561 26.6946 27.829 25.5495 27.4426C23.1978 26.6491 19.5472 25.1382 17.2333 22.8243C14.9195 20.5105 13.4086 16.8599 12.615 14.5081C12.2287 13.363 13.1015 12.2405 14.31 12.2405H16.6827Z" stroke="#035C74" stroke-width="1.32328" stroke-linecap="round" stroke-linejoin="round"/>
<path d="M29.4992 17.7656C29.6174 16.9724 29.5787 16.1604 29.3829 15.3796C29.1242 14.3481 28.5916 13.3713 27.785 12.5647C26.9783 11.7581 26.0015 11.2254 24.9701 10.9668C24.1893 10.771 23.3772 10.7322 22.584 10.8505M25.949 17.39C26.0757 16.5403 25.812 15.6436 25.1579 14.9895C24.5037 14.3355 23.6071 14.0717 22.7574 14.1984" stroke="#00BF91" stroke-width="1.32328" stroke-linecap="round" stroke-linejoin="round"/>
</g>
<defs>
<filter id="filter0_d_496_7725" x="0.683872" y="0.564819" width="40.7211" height="40.7209" filterUnits="userSpaceOnUse" color-interpolation-filters="sRGB">
<feFlood flood-opacity="0" result="BackgroundImageFix"/>
<feColorMatrix in="SourceAlpha" type="matrix" values="0 0 0 0 0 0 0 0 0 0 0 0 0 0 0 0 0 0 127 0" result="hardAlpha"/>
<feOffset dy="1.76437"/>
<feGaussianBlur stdDeviation="0.882185"/>
<feComposite in2="hardAlpha" operator="out"/>
<feColorMatrix type="matrix" values="0 0 0 0 0 0 0 0 0 0 0 0 0 0 0 0 0 0 0.25 0"/>
<feBlend mode="normal" in2="BackgroundImageFix" result="effect1_dropShadow_496_7725"/>
<feBlend mode="normal" in="SourceGraphic" in2="effect1_dropShadow_496_7725" result="shape"/>
</filter>
</defs>
</svg>
